<svg width="93" height="92" viewBox="0 0 93 92" fill="none" xmlns="http://www.w3.org/2000/svg">
<path d="M23.0372 18.1353C21.2805 15.0646 17.367 13.9993 14.2962 15.7561C11.2255 17.5129 10.1602 21.4263 11.917 24.497C12.1986 24.9894 12.5443 25.442 12.9451 25.8431L33.8661 53.2359L38.743 59.3817L24.4286 40.6394C22.672 37.5686 18.7584 36.5034 15.6876 38.2602C12.6169 40.017 11.5516 43.9304 13.3084 47.0011C13.59 47.4935 13.9357 47.9461 14.3365 48.3474L28.6509 67.0894L40.0267 81.419C49.9444 92.7991 66.358 92.1778 77.7354 82.2626C84.2744 76.5148 88.4797 68.5693 89.5551 59.9299C90.255 52.2515 91.0191 32.1722 91.0191 32.1722C90.6878 27.4541 85.3313 23.9662 84.641 26.403L75.7629 44.1042L69.6571 36.4443L45.2299 5.2259C43.4733 2.15515 39.5597 1.0899 36.489 2.84669C33.4182 4.60348 32.353 8.51688 34.1098 11.5876C34.3913 12.08 34.7371 12.5326 35.1378 12.9337L42.8456 23.0258L54.4984 38.4095L30.1548 6.33577C28.3982 3.26502 24.4846 2.19978 21.4139 3.95656C18.3431 5.71335 17.2779 9.62676 19.0345 12.6975C19.316 13.1899 19.6618 13.6425 20.0625 14.0438L46.6785 48.5382" stroke="black" stroke-width="3.62823" stroke-linecap="round" stroke-linejoin="round"/>
<path d="M10.3652 61.0039C10.3652 65.6595 13.5345 69.4265 17.451 69.4265" stroke="black" stroke-width="3.62823" stroke-miterlimit="10" stroke-linecap="round" stroke-linejoin="round"/>
<path d="M2 60.2148C2 70.3664 8.91068 78.5811 17.451 78.5811" stroke="black" stroke-width="3.62823" stroke-miterlimit="10" stroke-linecap="round" stroke-linejoin="round"/>
<path d="M71.3006 21.7565C71.3006 17.101 68.1313 13.334 64.2148 13.334" stroke="black" stroke-width="3.62823" stroke-miterlimit="10" stroke-linecap="round" stroke-linejoin="round"/>
<path d="M79.6658 22.546C79.6658 12.3944 72.7551 4.17969 64.2148 4.17969" stroke="black" stroke-width="3.62823" stroke-miterlimit="10" stroke-linecap="round" stroke-linejoin="round"/>
</svg>
